<svg xmlns="http://www.w3.org/2000/svg" viewBox="0 0 64 64" width="64" height="64" role="img" aria-label="Stefan Ecliserescu Performance Arts">
  <defs>
    <linearGradient id="se-flame" x1="14" y1="6" x2="52" y2="58" gradientUnits="userSpaceOnUse">
      <stop offset="0" stop-color="#ff8a3c"/>
      <stop offset=".55" stop-color="#ff5a1f"/>
      <stop offset="1" stop-color="#7e1604"/>
    </linearGradient>
  </defs>
  <rect width="64" height="64" rx="16" fill="url(#se-flame)"/>
  <path fill-rule="evenodd" clip-rule="evenodd" fill="#0b0908"
    d="M34.7 11c0 8 8 13.3 13.3 22.7C50.7 39.3 52 43.3 52 47c0 11.7-9.6 18-20 18s-20-6.3-20-18c0-10.7 8-20 12-29.3 1.3 5.3 5.3 8 6.7 13.3 1.9-9.3-1.3-17.3 4-20Zm-2.7 49.3c6.7 0 12-5.1 12-11.9 0-3.8-1.6-6.4-4.1-9.7-.5 3.7-3.2 5.9-5.6 5.9 2.4-4.8-.5-10.1-1.3-12.3-2.7 4-6.9 8-6.9 16.1 0 6.8 4.5 11.9 5.9 11.9Z"/>
</svg>
